<svg xmlns="http://www.w3.org/2000/svg" viewBox="0 0 32 16" width="32" height="16" shape-rendering="crispEdges">
  <style>
    @keyframes idle {
      0%, 100% { opacity: 1; }
      50% { opacity: 0.7; }
    }
    .frame1 { animation: idle 0.5s steps(1) infinite; }
    .frame2 { animation: idle 0.5s steps(1) infinite reverse; }
  </style>
  <!-- Frame 1 - Idle 1 (standing) -->
  <g class="frame1">
    <!-- Body (suit jacket) -->
    <rect x="6" y="6" width="4" height="6" fill="#000000"/>
    <rect x="5" y="7" width="6" height="4" fill="#000000"/>
    <!-- Tie -->
    <rect x="7" y="7" width="1" height="3" fill="#FF0000"/>
    <!-- White shirt collar -->
    <rect x="6" y="6" width="1" height="1" fill="#FFFFFF"/>
    <rect x="9" y="6" width="1" height="1" fill="#FFFFFF"/>
    <!-- Head -->
    <rect x="6" y="2" width="4" height="4" fill="#AAAAAA"/>
    <!-- Arms -->
    <rect x="3" y="7" width="2" height="3" fill="#000000"/>
    <rect x="11" y="7" width="2" height="3" fill="#000000"/>
    <!-- Briefcase -->
    <rect x="12" y="8" width="2" height="2" fill="#555555"/>
    <rect x="4" y="10" width="1" height="1" fill="#AAAAAA"/>
    <!-- Legs -->
    <rect x="6" y="12" width="2" height="3" fill="#555555"/>
    <rect x="9" y="12" width="2" height="3" fill="#555555"/>
  </g>
  <!-- Frame 2 - Idle 2 -->
  <g class="frame2">
    <rect x="6" y="6" width="4" height="6" fill="#000000"/>
    <rect x="5" y="7" width="6" height="4" fill="#000000"/>
    <rect x="7" y="7" width="1" height="3" fill="#FF0000"/>
    <rect x="6" y="6" width="1" height="1" fill="#FFFFFF"/>
    <rect x="9" y="6" width="1" height="1" fill="#FFFFFF"/>
    <rect x="6" y="2" width="4" height="4" fill="#AAAAAA"/>
    <rect x="3" y="7" width="2" height="3" fill="#000000"/>
    <rect x="11" y="7" width="2" height="3" fill="#000000"/>
    <rect x="12" y="8" width="2" height="2" fill="#555555"/>
    <rect x="4" y="10" width="1" height="1" fill="#AAAAAA"/>
    <rect x="6" y="12" width="2" height="3" fill="#555555"/>
    <rect x="9" y="12" width="2" height="3" fill="#555555"/>
  </g>
</svg>